<!-- GENERATED by tools/make-marked-motifs.mjs — do not edit by hand.
     Rootwoken · organic vines. A mask: white only, opacity is the drawing,
     and marked.css supplies hue, falloff and glow. -->
<svg xmlns="http://www.w3.org/2000/svg" viewBox="0 60 300 120" fill="#fff">
  <path d="M27.92 183.07L25.99 175.6L22.9 168.35L19.16 161.51L14.64 155.21L9.7 149.35L4.41 144.02L-0.58 138.88L-4.53 133.24L-7.07 126.74L-8.91 119.95L-9.17 112.78L-9.45 105.43L-9.35 97.99L-10.02 90.4L-12.38 83.18L-15.33 76.26L-19.41 70L-20.52 70.68L-16.87 77.03L-14.4 83.88L-12.53 90.84L-12.31 98.02L-12.83 105.37L-12.96 112.82L-13.1 120.45L-11.51 128.06L-9.05 135.49L-4.89 142.23L0.09 148.02L4.94 153.47L9.23 159.19L13.02 165.14L16.02 171.47L18.39 177.97L19.76 184.93ZM75 185.49L77.33 178.64L80.1 172.31L83.97 166.55L88.56 160.77L92.79 154.58L97.19 148.39L100.67 141.34L102.77 133.78L103.54 126.15L103.74 118.6L103.35 111.24L103.89 104.01L104.98 96.86L107.57 90.08L110.6 83.35L109.44 82.78L105.96 89.34L102.83 96.21L101.2 103.61L100.16 111.1L100.08 118.53L99.42 125.76L98.27 132.8L95.98 139.38L92.51 145.39L87.95 150.98L83.45 156.75L78.47 162.25L73.7 168.51L70.05 175.52L67.15 182.51ZM132.62 183.23L130.81 175.72L127.56 168.38L123.13 161.91L118.47 156.22L114.63 150.24L111.4 144.02L109.53 137.31L108.7 130.25L108.6 123.05L109.16 115.67L109 108.16L108.61 100.7L107.75 93.16L105.22 86.02L102.23 79.19L99.02 72.51L97.83 73.04L100.69 79.86L103.28 86.73L105.36 93.65L105.79 100.86L105.79 108.2L105.58 115.48L104.64 122.83L104.35 130.42L104.86 138.11L106.59 145.76L109.8 152.86L113.63 159.54L118.04 165.54L121.69 171.48L124.11 177.8L125.38 184.77ZM185.38 182.98L183.28 175.86L181.17 168.98L179.96 162.08L179.45 155.25L180.58 148.64L183.17 142.18L186.42 135.82L190.46 129.59L193.8 122.6L195.96 115.08L196.25 107.34L195.72 99.7L193.79 92.39L191.81 85.29L190.32 78.09L189 70.9L188.99 63.57L187.69 63.54L187.31 71.01L188.27 78.44L189.39 85.81L191 93.07L192.49 100.15L192.6 107.3L191.99 114.34L189.7 120.93L186.32 127.13L181.98 133.1L178.14 139.72L174.86 146.85L173.09 154.76L173.22 162.71L174.15 170.46L175.99 177.84L177.7 185.02ZM238.54 184.92L239.93 177.86L242.07 171L244.31 163.9L246.38 156.66L248.13 149.17L248.9 141.38L248.49 133.7L247.71 126.28L247.02 118.99L246.77 111.76L247.14 104.65L248.93 97.84L252.11 91.4L255.78 85.09L260.08 79.06L263.76 72.47L266.06 65.35L264.83 64.92L262.2 71.74L258.31 77.87L253.69 83.66L249.56 89.93L245.82 96.57L243.43 103.96L242.59 111.6L242.42 119.16L242.71 126.64L243.08 133.98L243.07 141.09L241.99 147.98L239.98 154.81L237.6 161.68L234.99 168.56L232.33 175.7L230.44 183.08ZM293.17 183.58L292.21 176.56L292.47 169.68L293.47 162.77L295.39 156.1L298.31 149.63L301.73 143.03L304.68 135.95L306.84 128.47L307.54 120.67L306.83 112.93L304.9 105.58L302.76 98.55L301.47 91.51L301.66 84.37L303.14 77.32L305.75 70.54L309.21 64.05L308.08 63.41L304.23 69.79L301.16 76.67L299.21 84.02L298.6 91.65L299.57 99.24L301.36 106.48L302.83 113.53L303.1 120.56L302.12 127.46L299.81 134.09L296.71 140.52L292.98 146.88L289.45 153.73L286.87 161.16L285.34 168.83L284.64 176.72L285.25 184.42Z" opacity=".54"/>
  <path d="M3.74 146.85L6.62 141.34L9.44 135.72L11.71 129.71L12.47 123.35L12.61 117.08L12.39 110.79L11.15 104.64L9.74 98.59L8.86 98.77L9.96 104.87L10.87 110.93L10.77 117.04L10.33 123.15L9.33 129.07L6.93 134.55L3.9 139.86L0.76 145.2ZM-10.09 111.41L-15.09 108.1L-18.98 103.61L-22.63 98.72L-25.94 93.48L-29.72 88.45L-33.99 83.83L-38.75 79.75L-43.73 76.02L-44.29 76.73L-39.54 80.68L-35.08 84.9L-31.16 89.59L-27.74 94.66L-24.69 100.06L-21.18 105.29L-17.18 110.37L-12.04 114.19ZM90.77 154.43L96.69 152.83L102.8 151.72L108.9 150L114.75 147.61L120.28 144.71L125.76 141.91L131.5 139.83L137.54 138.63L137.39 137.74L131.21 138.65L125.19 140.49L119.48 143.06L113.89 145.64L108.15 147.65L102.24 149L96.09 149.8L89.97 151.13ZM102.48 124.58L97.36 121.02L92.16 117.75L87.54 113.91L83.6 109.45L80.96 104.13L79.56 98.21L78.2 92.09L75.59 86.3L71.6 81.45L70.89 82L74.58 86.9L76.81 92.52L77.86 98.56L79.06 104.77L81.67 110.68L85.71 115.71L90.44 120.01L95.58 123.59L100.48 127.33ZM112.53 149.88L106.39 148.87L100.16 148.05L93.79 147.68L87.4 148.61L81.41 150.9L75.97 154.01L70.61 157.05L64.94 159.38L59.07 161.32L59.33 162.18L65.32 160.49L71.22 158.37L76.79 155.54L82.24 152.73L87.93 150.84L93.84 150.24L99.83 150.87L105.86 151.95L111.9 153.22ZM108.27 114.14L102.81 110.9L96.82 108.67L90.87 106.96L85.25 104.71L80.02 101.62L74.99 98.19L70.69 93.92L67.17 88.86L63.16 84.1L62.46 84.66L66.22 89.56L69.55 94.83L73.86 99.5L78.9 103.29L84.2 106.74L89.98 109.37L95.87 111.35L101.41 113.69L106.47 117.02ZM181.97 139.88L177.89 135.08L173.13 130.75L167.61 127.33L161.47 125.5L155.42 124.04L149.44 122.5L143.64 120.68L138.5 117.41L133.47 113.81L132.93 114.53L137.82 118.37L143 121.99L148.93 124.16L154.89 125.98L160.83 127.7L166.51 129.65L171.37 132.98L175.6 137.2L179.33 142.03ZM195.35 105.89L189.97 102.61L184.2 100.01L178.43 97.74L172.94 95.23L168.28 91.5L164.57 86.79L162.15 81.24L160.76 75.25L159.88 75.44L160.99 81.59L163.24 87.53L166.94 92.76L171.77 97.03L177.41 99.98L183.06 102.54L188.46 105.3L193.5 108.75ZM247.2 140.04L242.85 135.87L239.69 130.98L238.12 125.3L237.38 119.26L237.04 113.13L236.95 106.92L236.37 100.63L234.15 94.75L233.3 95.05L235.18 100.87L235.42 106.96L235.2 113.15L235.24 119.4L235.7 125.71L237.13 132.05L240.42 137.76L244.77 142.43ZM246.25 105.7L251.44 101.98L255.68 97.07L259.09 91.83L262.77 86.96L266.85 82.43L271.27 78.34L276.69 75.58L282.13 72.63L287.77 70.07L293.21 67.02L292.78 66.23L287.27 69.03L281.53 71.36L275.95 74.1L270.21 76.76L265.35 80.89L260.95 85.39L256.95 90.26L253.39 95.28L249.36 99.61L244.32 102.9ZM298.8 143.42L304.64 144.76L309.8 147.6L314.75 151.19L319.88 154.85L325.57 157.71L331.59 159.72L337.87 160.85L344.16 160.24L350.33 159.56L356.5 158.93L356.42 158.03L350.23 158.42L344.05 158.85L337.97 159.21L332.1 157.89L326.44 155.74L321.16 152.82L316.34 149.07L311.4 145.18L305.82 141.84L299.64 140.13ZM303.58 104.39L297.61 102.9L291.72 101.06L285.85 99.38L280.49 96.71L275.78 93.02L272.02 88.22L268.06 83.39L263.47 79.16L262.84 79.8L267.16 84.2L270.8 89.15L274.45 94.29L279.3 98.5L284.89 101.66L290.85 103.7L296.7 105.85L302.68 107.67Z" opacity=".4"/>
  <path d="M6.33 183.74L5.07 177.81L3.18 171.94L0.26 166.46L-3.7 161.87L-7.08 157.02L-9.65 151.75L-10.39 145.89L-11.19 145.97L-10.69 152.04L-8.27 157.68L-5.04 162.85L-1.37 167.52L1.1 172.76L2.62 178.4L3.58 184.26ZM36.93 184.7L39.8 179.44L42.74 174.22L45.75 168.96L48.14 163.2L48.23 157.02L48.3 151.07L49.17 145.2L50.53 139.37L49.76 139.18L48.14 144.98L47.01 150.94L46.68 156.97L46.39 162.8L43.93 168.01L40.76 173.04L37.6 178.15L34.5 183.3ZM61.82 183.95L61.45 178.04L61.89 172.24L63.28 166.61L66.02 161.31L67.78 155.49L69.38 149.66L70.23 143.68L69.44 143.55L68.33 149.41L66.47 155.08L64.5 160.66L61.48 165.88L59.69 171.83L58.94 177.97L59.02 184.05ZM96.94 183.81L95.98 177.96L95.73 172.17L96.87 166.44L98.53 160.65L99.27 154.54L97.98 148.58L97.2 148.73L98.14 154.56L97.11 160.32L95.13 165.97L93.61 171.94L93.52 178.15L94.17 184.19ZM116.92 183.85L116.08 177.91L115.27 172.09L115.96 166.38L118.33 160.97L120.42 155.32L119.68 155.02L117.24 160.48L114.43 165.9L113.27 172.04L113.7 178.16L114.14 184.15ZM153.98 183.62L152.19 177.75L149.18 172.37L146.01 167.26L142.95 162.13L140.1 156.89L137.69 151.48L136.18 145.71L135.4 145.9L136.66 151.81L138.86 157.47L141.49 162.91L144.32 168.23L147.24 173.46L149.85 178.69L151.28 184.38ZM173.22 183.89L172.61 178.03L172.98 172.04L172.26 165.86L169.84 160.16L166.55 155.02L162.63 150.42L162.01 150.92L165.62 155.67L168.52 160.81L170.51 166.27L170.84 172.04L170.14 178.01L170.43 184.11ZM209.68 183.45L207.11 177.89L203.46 172.85L199.01 168.66L194.58 164.69L190.89 160.05L187.49 155.13L186.82 155.57L189.96 160.7L193.49 165.66L197.76 169.95L201.82 174.21L204.95 179.08L207.11 184.55ZM234.73 183.97L234.49 178.16L235.9 172.62L238.39 167.19L240.1 161.22L239.97 154.98L238.22 149.12L236.26 143.43L234.32 137.75L233.56 137.99L235.26 143.75L236.97 149.49L238.43 155.19L238.32 160.95L236.48 166.44L233.75 171.81L231.96 177.84L231.93 184.03ZM267.27 183.49L264.98 178.11L264.2 172.54L265.55 167L268.03 161.68L270.89 156.46L274.16 151.43L277.05 146.15L276.36 145.75L273.24 150.85L269.73 155.72L266.57 160.89L263.73 166.32L261.98 172.37L262.54 178.72L264.66 184.51ZM284.91 184.77L287.97 179.83L292.35 176.15L297.41 173.17L302.85 170.64L308.09 167.42L311.73 162.52L311.1 162.02L307.35 166.57L302.19 169.33L296.61 171.56L291.16 174.37L286.15 178.17L282.58 183.23Z" opacity=".26"/>
  <g fill="none" stroke="#fff" stroke-width="1.6" stroke-linecap="round" opacity=".36">
    <path d="M9.3 98.68L7.7 99.47L6.42 100.63L5.55 102.06L5.12 103.62L5.14 105.17L5.58 106.61L6.38 107.82L7.43 108.72L8.65 109.27L9.91 109.44L11.12 109.26L12.18 108.77L13.01 108.04L13.58 107.15L13.85 106.19L13.83 105.25L13.56 104.4L13.09 103.71L12.48 103.23L11.81 102.97L11.14 102.92L10.55 103.06L10.07 103.35L9.74 103.74L9.57 104.16L9.55 104.57M-19.97 70.34L-17.51 69.6L-15.02 69.7L-12.78 70.57L-11 72.07L-9.84 73.99L-9.39 76.1L-9.64 78.17L-10.51 79.97L-11.86 81.33L-13.51 82.14L-15.25 82.35L-16.89 82L-18.25 81.18L-19.22 80.02L-19.72 78.68L-19.75 77.32L-19.35 76.12L-18.62 75.17L-17.69 74.57L-16.68 74.34L-15.74 74.46L-14.96 74.85L-14.42 75.43L-14.15 76.1L-14.15 76.74L-14.35 77.27M137.46 138.18L136.73 136.56L135.61 135.24L134.21 134.32L132.67 133.84L131.11 133.81L129.66 134.21L128.43 134.96L127.49 135.99L126.91 137.18L126.69 138.44L126.83 139.66L127.28 140.73L127.99 141.59L128.86 142.18L129.81 142.48L130.75 142.49L131.61 142.25L132.31 141.81L132.81 141.21L133.1 140.55L133.17 139.89L133.05 139.28L132.77 138.8L132.4 138.45L131.98 138.27L131.57 138.24M71.25 81.73L70.16 83.15L69.54 84.76L69.4 86.42L69.71 88.01L70.43 89.39L71.46 90.48L72.71 91.2L74.06 91.54L75.39 91.48L76.6 91.08L77.6 90.38L78.33 89.47L78.75 88.44L78.85 87.39L78.67 86.41L78.23 85.57L77.61 84.94L76.89 84.53L76.13 84.37L75.41 84.44L74.79 84.69L74.32 85.08L74.02 85.56L73.89 86.05L73.93 86.51L74.1 86.88M110.02 83.06L107.5 82.57L105.03 82.9L102.88 83.98L101.25 85.64L100.28 87.66L100.03 89.81L100.48 91.84L101.51 93.55L102.99 94.77L104.71 95.42L106.46 95.47L108.06 94.97L109.34 94.02L110.19 92.77L110.56 91.39L110.46 90.04L109.95 88.88L109.14 88.01L108.15 87.5L107.13 87.36L106.2 87.57L105.46 88.03L104.98 88.67L104.78 89.35L104.83 89.99L105.09 90.5M59.2 161.75L59.12 159.97L59.53 158.29L60.36 156.84L61.52 155.72L62.89 154.99L64.36 154.68L65.81 154.8L67.1 155.29L68.17 156.09L68.93 157.12L69.35 158.26L69.43 159.43L69.19 160.51L68.68 161.43L67.97 162.13L67.14 162.57L66.26 162.74L65.44 162.66L64.72 162.36L64.16 161.89L63.8 161.33L63.64 160.74L63.66 160.18L63.84 159.71L64.13 159.35L64.48 159.14M98.42 72.78L100.96 72.36L103.41 72.77L105.53 73.92L107.1 75.63L108.01 77.68L108.19 79.84L107.68 81.86L106.59 83.53L105.07 84.71L103.33 85.3L101.58 85.29L100 84.74L98.75 83.75L97.94 82.47L97.61 81.08L97.76 79.74L98.3 78.59L99.14 77.75L100.15 77.27L101.17 77.17L102.1 77.4L102.82 77.89L103.28 78.54L103.46 79.23L103.38 79.87L103.11 80.37M188.34 63.56L190.8 64.28L192.84 65.71L194.25 67.66L194.93 69.89L194.85 72.13L194.08 74.15L192.75 75.75L191.04 76.78L189.17 77.19L187.34 76.97L185.76 76.21L184.58 75.02L183.88 73.59L183.7 72.09L184.01 70.69L184.72 69.54L185.71 68.74L186.84 68.35L187.95 68.35L188.92 68.7L189.65 69.31L190.09 70.07L190.22 70.85L190.08 71.56L189.74 72.1L189.28 72.43M233.73 94.9L235.5 94.75L237.2 95.09L238.68 95.86L239.85 96.98L240.63 98.32L240.99 99.78L240.93 101.23L240.49 102.54L239.73 103.64L238.73 104.44L237.6 104.91L236.45 105.03L235.35 104.83L234.41 104.36L233.69 103.67L233.22 102.86L233.01 101.99L233.06 101.16L233.33 100.44L233.78 99.86L234.32 99.48L234.91 99.29L235.47 99.29L235.95 99.46L236.31 99.73L236.54 100.07M292.99 66.63L293.41 68.36L293.34 70.09L292.8 71.67L291.88 72.99L290.67 73.97L289.28 74.56L287.84 74.72L286.47 74.48L285.28 73.9L284.33 73.04L283.7 72L283.4 70.87L283.42 69.76L283.75 68.76L284.32 67.94L285.05 67.35L285.87 67.01L286.7 66.93L287.46 67.09L288.09 67.44L288.56 67.92L288.83 68.47L288.92 69.02L288.83 69.52L288.61 69.93L288.31 70.2M265.45 65.13L262.89 64.93L260.48 65.54L258.46 66.86L257.03 68.69L256.3 70.81L256.3 72.98L256.97 74.95L258.2 76.52L259.81 77.57L261.59 78.02L263.34 77.87L264.87 77.19L266.03 76.1L266.73 74.76L266.94 73.34L266.69 72.01L266.05 70.92L265.14 70.15L264.1 69.75L263.07 69.73L262.17 70.04L261.49 70.59L261.09 71.27L260.96 71.98L261.09 72.61L261.4 73.08M356.46 158.48L356.16 160.24L355.4 161.79L354.28 163.03L352.91 163.88L351.41 164.3L349.91 164.28L348.52 163.86L347.36 163.1L346.49 162.09L345.96 160.93L345.8 159.72L345.97 158.56L346.43 157.56L347.13 156.77L347.97 156.24L348.88 155.99L349.77 156.01L350.56 156.26L351.2 156.71L351.64 157.28L351.88 157.9L351.91 158.52L351.77 159.06L351.49 159.49L351.13 159.77L350.74 159.9M308.64 63.73L310.48 65.53L311.59 67.75L311.92 70.13L311.47 72.42L310.35 74.36L308.72 75.78L306.79 76.56L304.79 76.67L302.95 76.14L301.44 75.09L300.41 73.67L299.92 72.07L299.98 70.48L300.53 69.07L301.46 67.98L302.63 67.3L303.88 67.07L305.06 67.25L306.04 67.77L306.73 68.54L307.08 69.42L307.11 70.29L306.86 71.05L306.41 71.6L305.85 71.92L305.29 72"/>
  </g>
  <path d="M7.32 151.41Q1.32 148.11 -2.53 154.66Q4.46 157.64 7.32 151.41ZM-9.29 127.4Q-2.35 128.23 0.54 120.85Q-7.39 120.68 -9.29 127.4ZM-11.14 105.4Q-16.24 98.83 -25.39 101.53Q-18.87 108.49 -11.14 105.4ZM-11.27 90.62Q-3.54 89.43 -1.71 80.66Q-10.4 82.85 -11.27 90.62ZM90.37 152.78Q94.92 159.15 104.02 158.56Q98.1 151.62 90.37 152.78ZM100.52 133.29Q95.9 126.86 86.94 128.59Q92.91 135.5 100.52 133.29ZM101.91 118.57Q109.46 120.81 113.97 113.12Q105.21 111.42 101.91 118.57ZM103.91 96.54Q104.33 89.59 96.65 88.86Q96.95 96.57 103.91 96.54ZM112.22 151.55Q105.79 148.25 99.06 153.19Q106.8 156.32 112.22 151.55ZM106.53 130.34Q113.1 131.9 116.49 125.05Q108.92 124.02 106.53 130.34ZM107.39 108.18Q102.87 101.47 93.59 102.68Q99.49 109.94 107.39 108.18ZM106.56 93.41Q113.65 93.02 117.05 85.52Q108.91 86.71 106.56 93.41ZM177.72 147.74Q182.09 152.47 188.81 149.5Q183.33 144.6 177.72 147.74ZM191.75 121.76Q189.4 114.95 181.19 115.15Q184.59 122.62 191.75 121.76ZM194.11 99.93Q200.74 100.5 204.41 93.76Q196.74 93.81 194.11 99.93ZM190.6 85.55Q186.53 79.5 178.7 82.19Q183.97 88.57 190.6 85.55ZM245.06 148.58Q243.24 141.64 235.07 141.13Q237.89 148.81 245.06 148.58ZM244.72 119.08Q251.48 120.41 256.05 113.93Q248.16 113.11 244.72 119.08ZM247.38 97.2Q247.09 90.04 239.37 87.15Q240.46 95.32 247.38 97.2ZM254.74 84.37Q259.85 90.99 268.94 88.03Q262.41 81.05 254.74 84.37ZM295.64 148.25Q293.84 140.85 285.19 139.56Q288.03 147.84 295.64 148.25ZM305.32 120.61Q312.96 121.79 317.16 114.01Q308.33 113.5 305.32 120.61ZM301.16 98.9Q295.98 92.42 287.1 95.71Q293.69 102.5 301.16 98.9ZM300.43 84.19Q305.12 89.55 311.5 84.84Q305.71 79.42 300.43 84.19Z" opacity=".32"/>
  <path d="M-44.01 76.38Q-45.09 71.2 -51.08 70.8Q-49.3 76.54 -44.01 76.38ZM62.81 84.38Q62.92 79.09 57.17 77.36Q57.62 83.35 62.81 84.38ZM133.2 114.17Q132 109.02 126 108.78Q127.92 114.47 133.2 114.17ZM160.32 75.35Q162.83 70.69 158.5 66.53Q156.17 72.07 160.32 75.35ZM263.15 79.48Q262.61 74.22 256.69 73.22Q257.88 79.1 263.15 79.48Z" opacity=".38"/>
</svg>
